<svg width="15" height="16" viewBox="0 0 15 16" fill="none" xmlns="http://www.w3.org/2000/svg">
<g id="Group 1756">
<path id="Vector" d="M1 6.6C1 3.96013 1 2.6402 1.8201 1.8201C2.6402 1 3.96013 1 6.6 1H8C10.6399 1 11.9598 1 12.7799 1.8201C13.6 2.6402 13.6 3.96013 13.6 6.6V9.4C13.6 12.0399 13.6 13.3598 12.7799 14.1799C11.9598 15 10.6399 15 8 15H6.6C3.96013 15 2.6402 15 1.8201 14.1799C1 13.3598 1 12.0399 1 9.4V6.6Z" stroke="#737373" stroke-width="1.2"/>
<path id="Vector_2" d="M7.30039 3.80078L7.30039 5.20078M7.30039 5.20078L7.30039 6.60078M7.30039 5.20078H5.90038M7.30039 5.20078L8.70038 5.20078" stroke="#737373" stroke-width="1.2" stroke-linecap="round"/>
<path id="Vector_3" d="M4.5 9.40039H10.1" stroke="#737373" stroke-width="1.2" stroke-linecap="round"/>
<path id="Vector_4" d="M5.2002 12.1992L9.4002 12.1992" stroke="#737373" stroke-width="1.2" stroke-linecap="round"/>
</g>
</svg>
