<svg width="16" height="13" viewBox="0 0 16 13" fill="none" xmlns="http://www.w3.org/2000/svg">
<g id="Group 1526">
<path id="Vector" d="M6.10627 1.4992C6.70508 1.30873 7.36128 1.19727 8.07704 1.19727C10.8242 1.19727 12.6939 2.83928 13.8088 4.28765C14.3671 5.01302 14.6463 5.37571 14.6463 6.45265C14.6463 7.52959 14.3671 7.89228 13.8088 8.61765C12.6939 10.066 10.8242 11.708 8.07704 11.708C5.32987 11.708 3.46016 10.066 2.34532 8.61765C1.78698 7.89228 1.50781 7.52959 1.50781 6.45265C1.50781 5.37571 1.78698 5.01302 2.34532 4.28765C2.66145 3.87695 3.03827 3.45068 3.47858 3.05069" stroke="white" stroke-width="1.2" stroke-linecap="round"/>
<path id="Vector_2" d="M10.048 6.45319C10.048 7.54162 9.16564 8.42396 8.07721 8.42396C6.98879 8.42396 6.10645 7.54162 6.10645 6.45319C6.10645 5.36477 6.98879 4.48242 8.07721 4.48242C9.16564 4.48242 10.048 5.36477 10.048 6.45319Z" stroke="white" stroke-width="1.2"/>
</g>
</svg>
