<svg width="14" height="14" viewBox="0 0 14 14" fill="none" xmlns="http://www.w3.org/2000/svg">
<g id="Group 1593">
<path id="Vector" d="M5.8 13.0008C3.53726 13.0008 2.40589 13.0008 1.70294 12.2978C1 11.5949 1 11.0635 1 8.80078" stroke="#626999" stroke-width="1.2" stroke-linecap="round"/>
<path id="Vector_2" d="M13.0002 8.80078C13.0002 11.0635 13.0002 11.5949 12.2973 12.2978C11.5943 13.0008 10.4629 13.0008 8.2002 13.0008" stroke="#626999" stroke-width="1.2" stroke-linecap="round"/>
<path id="Vector_3" d="M8.2002 1C10.4629 1 11.5943 1 12.2973 1.70294C13.0002 2.40589 13.0002 2.93726 13.0002 5.2" stroke="#626999" stroke-width="1.2" stroke-linecap="round"/>
<path id="Vector_4" d="M5.8 1C3.53726 1 2.40589 1 1.70294 1.70294C1 2.40589 1 2.93726 1 5.2" stroke="#626999" stroke-width="1.2" stroke-linecap="round"/>
<path id="Vector_5" d="M3.33526 8.23588C2.97829 7.8218 2.7998 7.61477 2.7998 7C2.7998 6.38523 2.97829 6.1782 3.33526 5.76412C4.04803 4.93733 5.24341 4 6.9998 4C8.7562 4 9.95158 4.93733 10.6643 5.76412C11.0213 6.1782 11.1998 6.38523 11.1998 7C11.1998 7.61477 11.0213 7.8218 10.6643 8.23588C9.95158 9.06267 8.7562 10 6.9998 10C5.24341 10 4.04803 9.06267 3.33526 8.23588Z" stroke="#626999" stroke-width="1.2"/>
<circle id="Vector_6" cx="6.9998" cy="7.00078" r="1.2" stroke="#626999" stroke-width="1.2"/>
</g>
</svg>
