<svg width="12" height="12" viewBox="0 0 12 12" fill="none" xmlns="http://www.w3.org/2000/svg">
<path id="Union" fill-rule="evenodd" clip-rule="evenodd" d="M11.0526 6C11.0526 8.79049 8.79049 11.0526 6 11.0526C3.20951 11.0526 0.947368 8.79049 0.947368 6C0.947368 3.20951 3.20951 0.947368 6 0.947368C8.79049 0.947368 11.0526 3.20951 11.0526 6ZM6 12C9.3137 12 12 9.3137 12 6C12 2.6863 9.3137 0 6 0C2.6863 0 0 2.6863 0 6C0 9.3137 2.6863 12 6 12ZM6.34184 4.3073C5.42151 4.70152 2.76785 5.82106 2.76785 5.82106C2.13895 6.07336 2.50707 6.30989 2.50707 6.30989C2.50707 6.30989 3.04394 6.49912 3.50412 6.64101C3.96429 6.78293 4.20972 6.62526 4.20972 6.62526C4.20972 6.62526 5.28345 5.89991 6.37251 5.12725C7.13946 4.59113 6.9554 5.03264 6.77133 5.22188C6.37251 5.63185 5.71294 6.27835 5.16073 6.79871C4.91532 7.01948 5.03802 7.20869 5.1454 7.30329C5.45768 7.57493 6.19319 8.06895 6.52711 8.29323C6.61964 8.35538 6.68133 8.39682 6.69465 8.40708C6.77133 8.47017 7.20084 8.75399 7.4616 8.69092C7.72235 8.62785 7.75303 8.26516 7.75303 8.26516C7.75303 8.26516 7.95244 6.97216 8.13652 5.78953C8.17061 5.55731 8.20471 5.32996 8.2365 5.11797C8.31912 4.56703 8.38619 4.11981 8.39727 3.96039C8.4433 3.42427 7.89108 3.64502 7.89108 3.64502C7.89108 3.64502 6.69465 4.14962 6.34184 4.3073Z" fill="#0273E3"/>
</svg>
