<svg width="34" height="34" viewBox="0 0 34 34" fill="none" xmlns="http://www.w3.org/2000/svg">
<path d="M31.1673 13.8132C30.5865 13.8132 30.1048 13.3315 30.1048 12.7507V9.91732C30.1048 6.26232 27.739 3.89648 24.084 3.89648H9.91732C6.26232 3.89648 3.89648 6.26232 3.89648 9.91732V12.7507C3.89648 13.3315 3.41482 13.8132 2.83398 13.8132C2.25315 13.8132 1.77148 13.3315 1.77148 12.7507V9.91732C1.77148 5.04398 5.04398 1.77148 9.91732 1.77148H24.084C28.9573 1.77148 32.2298 5.04398 32.2298 9.91732V12.7507C32.2298 13.3315 31.7481 13.8132 31.1673 13.8132Z" fill="white"/>
<path d="M24.084 32.2292H9.91732C5.04398 32.2292 1.77148 28.9567 1.77148 24.0833V21.25C1.77148 20.6692 2.25315 20.1875 2.83398 20.1875C3.41482 20.1875 3.89648 20.6692 3.89648 21.25V24.0833C3.89648 27.7383 6.26232 30.1042 9.91732 30.1042H24.084C27.739 30.1042 30.1048 27.7383 30.1048 24.0833V21.25C30.1048 20.6692 30.5865 20.1875 31.1673 20.1875C31.7481 20.1875 32.2298 20.6692 32.2298 21.25V24.0833C32.2298 28.9567 28.9573 32.2292 24.084 32.2292Z" fill="white"/>
<path d="M23.2336 11.6312L17.9069 8.75535C17.3402 8.45785 16.6744 8.45785 16.1077 8.75535L10.7669 11.6312C10.3844 11.8437 10.1436 12.2545 10.1436 12.7079C10.1436 13.1754 10.3844 13.5862 10.7669 13.7987L16.0936 16.6745C16.3769 16.8304 16.6886 16.9012 17.0002 16.9012C17.3119 16.9012 17.6236 16.8304 17.9069 16.6745L23.2336 13.7987C23.6161 13.5862 23.8569 13.1754 23.8569 12.7079C23.8569 12.2545 23.6161 11.8437 23.2336 11.6312Z" fill="white"/>
<path d="M15.215 17.6666L10.2567 15.1874C9.87417 15.0033 9.435 15.0174 9.06667 15.2441C8.7125 15.4708 8.5 15.8533 8.5 16.2783V20.9674C8.5 21.7749 8.95333 22.5116 9.67583 22.8658L14.6342 25.3449C14.8042 25.4299 14.9883 25.4724 15.1867 25.4724C15.4133 25.4724 15.6258 25.4158 15.8242 25.2883C16.1925 25.0616 16.405 24.6791 16.405 24.2541V19.5649C16.3908 18.7574 15.9517 18.0349 15.215 17.6666Z" fill="white"/>
<path d="M24.9189 15.2441C24.5506 15.0174 24.1114 15.0033 23.7289 15.1874L18.7706 17.6666C18.0481 18.0349 17.5947 18.7574 17.5947 19.5649V24.2541C17.5947 24.6791 17.8072 25.0616 18.1756 25.2883C18.3739 25.4158 18.5864 25.4724 18.8131 25.4724C18.9972 25.4724 19.1814 25.4299 19.3656 25.3449L24.3239 22.8658C25.0464 22.4974 25.4997 21.7749 25.4997 20.9674V16.2783C25.4997 15.8533 25.2872 15.4708 24.9189 15.2441Z" fill="white"/>
</svg>
