<svg width="31" height="31" viewBox="0 0 31 31" fill="none" xmlns="http://www.w3.org/2000/svg">
<path d="M11.7586 12.8275C18.2526 12.8275 23.5171 9.95599 23.5171 6.41377C23.5171 2.87154 18.2526 0 11.7586 0C5.26449 0 0 2.87154 0 6.41377C0 9.95599 5.26449 12.8275 11.7586 12.8275Z" fill="white"/>
<path d="M11.7586 23.5182C6.62756 23.5182 2.35171 22.0216 0 19.6699V23.5182C0 27.1526 5.13101 29.9319 11.7586 29.9319C12.7206 29.9319 13.6827 29.8251 14.6448 29.7182C13.0413 28.1147 12.0793 25.8699 11.7586 23.5182Z" fill="white"/>
<path d="M0 11.1182V14.9664C0 18.6009 5.13101 21.3802 11.7586 21.3802C11.7586 21.3802 11.7586 21.3802 11.8655 21.3802C12.0793 18.8147 13.362 16.463 15.0723 14.7526C14.0034 14.8595 12.9344 14.9664 11.7586 14.9664C6.62756 14.9664 2.35171 13.4699 0 11.1182Z" fill="white"/>
<path d="M23.5166 21.3788H30.8924C30.358 17.5305 27.3649 14.4305 23.5166 14.0029V21.3788Z" fill="white"/>
<path d="M22.4482 23.5167C21.8068 23.5167 21.3792 23.0891 21.3792 22.4477V14.0029C17.2103 14.5374 13.8965 18.1719 13.8965 22.4477C13.8965 27.1511 17.7447 30.9994 22.4482 30.9994C26.8309 30.9994 30.3585 27.6856 30.893 23.5167H22.4482Z" fill="white"/>
</svg>
